<svg height="480pt" viewBox="-16 0 480 480" width="480pt" xmlns="http://www.w3.org/2000/svg" xmlns:xlink="http://www.w3.org/1999/xlink"><linearGradient id="a"><stop offset="0" stop-color="#e93e3a"/><stop offset=".359" stop-color="#ed683c"/><stop offset=".705" stop-color="#f3903f"/><stop offset="1" stop-color="#fdc70c"/></linearGradient><linearGradient id="b" gradientUnits="userSpaceOnUse" x1="224" x2="224" xlink:href="#a" y1="500.12" y2="-43.96"/><linearGradient id="c" gradientUnits="userSpaceOnUse" x1="80" x2="80" xlink:href="#a" y1="500.12" y2="-43.96"/><linearGradient id="d" gradientUnits="userSpaceOnUse" x1="120" x2="120" xlink:href="#a" y1="500.12" y2="-43.96"/><linearGradient id="e" gradientUnits="userSpaceOnUse" x1="216" x2="216" xlink:href="#a" y1="500.12" y2="-43.96"/><linearGradient id="f" gradientUnits="userSpaceOnUse" x1="112" x2="112" xlink:href="#a" y1="500.12" y2="-43.96"/><linearGradient id="g" gradientUnits="userSpaceOnUse" x1="192" x2="192" xlink:href="#a" y1="500.12" y2="-43.96"/><linearGradient id="h" gradientUnits="userSpaceOnUse" x1="256" x2="256" xlink:href="#a" y1="500.12" y2="-43.96"/><linearGradient id="i" gradientUnits="userSpaceOnUse" x1="96" x2="96" xlink:href="#a" y1="500.12" y2="-43.96"/><linearGradient id="j" gradientUnits="userSpaceOnUse" x1="176" x2="176" xlink:href="#a" y1="500.12" y2="-43.96"/><linearGradient id="k" gradientUnits="userSpaceOnUse" x1="232" x2="232" xlink:href="#a" y1="500.12" y2="-43.96"/><linearGradient id="l" gradientUnits="userSpaceOnUse" x1="272" x2="272" xlink:href="#a" y1="500.12" y2="-43.96"/><linearGradient id="m" gradientUnits="userSpaceOnUse" x1="200" x2="200" xlink:href="#a" y1="500.12" y2="-43.96"/><linearGradient id="n" gradientUnits="userSpaceOnUse" x1="264" x2="264" xlink:href="#a" y1="500.12" y2="-43.96"/><linearGradient id="o" gradientUnits="userSpaceOnUse" x1="152" x2="152" xlink:href="#a" y1="500.12" y2="-43.96"/><linearGradient id="p" gradientUnits="userSpaceOnUse" x1="248" x2="248" xlink:href="#a" y1="500.12" y2="-43.96"/><path d="m392 0h-336c-30.914062.0351562-55.9648438 25.085938-56 56v416c0 3.445312 2.203125 6.5 5.46875 7.589844 3.269531 1.089844 6.863281-.035156 8.929688-2.789063l17.601562-23.464843 17.601562 23.464843c1.574219 1.914063 3.921876 3.019531 6.398438 3.019531s4.824219-1.105468 6.398438-3.019531l17.601562-23.464843 17.601562 23.464843c1.574219 1.914063 3.921876 3.019531 6.398438 3.019531s4.824219-1.105468 6.398438-3.019531l17.601562-23.464843 17.601562 23.464843c1.574219 1.914063 3.921876 3.019531 6.398438 3.019531s4.824219-1.105468 6.398438-3.019531l17.601562-23.464843 17.601562 23.464843c1.574219 1.914063 3.921876 3.019531 6.398438 3.019531s4.824219-1.105468 6.398438-3.019531l17.601562-23.464843 17.601562 23.464843c1.574219 1.914063 3.921876 3.019531 6.398438 3.019531s4.824219-1.105468 6.398438-3.019531l17.601562-23.464843 17.601562 23.464843c1.574219 1.914063 3.921876 3.019531 6.398438 3.019531s4.824219-1.105468 6.398438-3.019531l17.601562-23.464843 17.601562 23.464843c1.507813 2.011719 3.878907 3.199219 6.398438 3.199219.859375-.003906 1.710938-.140625 2.527344-.40625 3.269531-1.089844 5.472656-4.148438 5.472656-7.59375v-56h56c22.082031-.027344 39.972656-17.917969 40-40v-320c-.035156-30.914062-25.085938-55.9648438-56-56zm-56 448-9.601562-12.800781c-1.574219-1.914063-3.921876-3.019531-6.398438-3.019531s-4.824219 1.105468-6.398438 3.019531l-17.601562 23.464843-17.601562-23.464843c-1.574219-1.914063-3.921876-3.019531-6.398438-3.019531s-4.824219 1.105468-6.398438 3.019531l-17.601562 23.464843-17.601562-23.464843c-1.574219-1.914063-3.921876-3.019531-6.398438-3.019531s-4.824219 1.105468-6.398438 3.019531l-17.601562 23.464843-17.601562-23.464843c-1.574219-1.914063-3.921876-3.019531-6.398438-3.019531s-4.824219 1.105468-6.398438 3.019531l-17.601562 23.464843-17.601562-23.464843c-1.574219-1.914063-3.921876-3.019531-6.398438-3.019531s-4.824219 1.105468-6.398438 3.019531l-17.601562 23.464843-17.601562-23.464843c-1.574219-1.914063-3.921876-3.019531-6.398438-3.019531s-4.824219 1.105468-6.398438 3.019531l-17.601562 23.464843-17.601562-23.464843c-1.574219-1.914063-3.921876-3.019531-6.398438-3.019531s-4.824219 1.105468-6.398438 3.019531l-9.601562 12.800781v-392c.027344-22.082031 17.917969-39.972656 40-40h296.878906c-10.792968 10.507812-16.882812 24.933594-16.878906 40zm96-72c0 13.253906-10.746094 24-24 24h-56v-344c0-22.089844 17.910156-40 40-40s40 17.910156 40 40zm0 0" fill="url(#b)"/><path d="m64 208h32v16h-32zm0 0" fill="url(#c)"/><path d="m112 208h16v16h-16zm0 0" fill="url(#d)"/><path d="m144 208h144v16h-144zm0 0" fill="url(#e)"/><path d="m64 256h96v16h-96zm0 0" fill="url(#f)"/><path d="m176 256h32v16h-32zm0 0" fill="url(#g)"/><path d="m224 256h64v16h-64zm0 0" fill="url(#h)"/><path d="m64 304h64v16h-64zm0 0" fill="url(#i)"/><path d="m144 304h64v16h-64zm0 0" fill="url(#j)"/><path d="m224 304h16v16h-16zm0 0" fill="url(#k)"/><path d="m256 304h32v16h-32zm0 0" fill="url(#l)"/><path d="m64 352h96v16h-96zm0 0" fill="url(#f)"/><path d="m176 352h48v16h-48zm0 0" fill="url(#m)"/><path d="m240 352h48v16h-48zm0 0" fill="url(#n)"/><path d="m64 400h32v16h-32zm0 0" fill="url(#c)"/><path d="m112 400h80v16h-80zm0 0" fill="url(#o)"/><path d="m208 400h80v16h-80zm0 0" fill="url(#p)"/><g fill="url(#j)"><path d="m176 144c-4.417969 0-8-3.582031-8-8h-16c.042969 10.132812 6.445312 19.148438 16 22.527344v9.472656h16v-9.472656c9.554688-3.378906 15.957031-12.394532 16-22.527344 0-12.945312-11.808594-18.847656-20.425781-23.160156-6.773438-3.382813-11.574219-6.007813-11.574219-8.839844 0-4.417969 3.582031-8 8-8s8 3.582031 8 8h16c-.042969-10.132812-6.445312-19.148438-16-22.527344v-9.472656h-16v9.472656c-9.554688 3.378906-15.957031 12.394532-16 22.527344 0 12.945312 11.808594 18.847656 20.425781 23.160156 6.773438 3.382813 11.574219 6.007813 11.574219 8.839844 0 4.417969-3.582031 8-8 8zm0 0"/><path d="m176 192c39.765625 0 72-32.234375 72-72s-32.234375-72-72-72-72 32.234375-72 72c.046875 39.746094 32.253906 71.953125 72 72zm0-128c30.929688 0 56 25.070312 56 56s-25.070312 56-56 56-56-25.070312-56-56c.035156-30.914062 25.085938-55.964844 56-56zm0 0"/></g></svg>